<svg overflow="hidden" viewBox="0, 0, 960, 960" id="56e24c86-a0e8-41ad-b49c-772d4f478291" xmlns="http://www.w3.org/2000/svg" xmlns:xlink="http://www.w3.org/1999/xlink" xmlns:xml="http://www.w3.org/XML/1998/namespace" version="1.1"><style>
.MsftOfcThm_Accent4_Fill_v2 {
 fill:#FFC000; 
}
</style><g><path d="M549.646 297.916 C548.3 291.521 548.434 285.388 545.5 281.055 C541.815 275.612 533.367 273.122 528.991 270.935 L510.627 270.935 C497.386 270.935 485.079 265.488 476.246 256.381 C471.608 251.6 467.928 245.81 465.573 239.27 L465.573 239.27 C459.477 222.337 443.415 211.047 425.418 211.047 L417.736 211.047 C402.743 211.047 389.18 217.559 378.6 226.698 C370.086 257.812 392.792 288.944 422.7 299.255 C418.021 309.098 416.687 316.171 416.3 327.788 C415.767 343.788 422.676 369.704 441.1 383.521 C418.303 389.036 406.433 414.496 406.433 438.988 C406.433 456.248 417.9 486.988 440.395 479.958 L461.27 389.008 L461.413 359.935 C461.279 344.409 472.57 331.94 488.095 331.935 L501.413 331.935 C514.116 331.935 524.413 328.577 524.413 324.435 C524.413 323.803 524.17 323.19 523.719 322.603 C534.168 316.726 543.131 308.292 549.646 297.916 z" class="st0" style="fill:#737373;" /><path d="M505.39 746.798 C504.47 715.047 469.251 691.54 439.123 695.33 L408.434 586.188 L387.036 586.42 L398.468 711.223 C398.675 713.479 399.243 715.679 400.156 717.752 C403.971 726.416 415.514 748.419 434.364 748.419 L505.414 748.419 C505.413 747.877 505.405 747.336 505.39 746.798 z" class="st0" style="fill:#737373;" /><path d="M387.5 598.722 C387.5 609.455 399.777 620.589 409.9 620.589 C411.002 620.589 415.902 615.194 416.931 613.8 C416.932 613.798 416.933 613.796 416.933 613.794 L416.929 583.016 L417.116 582.675 C416.195 581.487 411.067 576.856 409.899 576.856 C399.776 576.855 387.5 588.055 387.5 598.722 z" class="st1" style="fill:#505050;" /><path d="M269.035 715.411 L269.15 715.382 C270.56 734.156 286.229 748.487 305.363 748.487 L376.413 748.487 C376.413 747.944 376.405 747.87 376.39 747.332 C375.461 715.272 346.227 692.668 315.91 697.035 L284.413 697.035 L269.035 715.411 z" class="st0" style="fill:#737373;" /><path d="M338.139 406.689 L329.067 415.257 C292.748 446.982 264.275 483.224 241.686 522.883 C239.861 526.087 238.076 529.314 236.327 532.562 C224.573 554.39 214.508 577.2 205.82 600.814 C230.034 599.922 250.252 573.974 251.434 546.522 C258.547 548.35 264.937 548.781 272.634 548.722 C320.042 548.357 364.045 496.131 363.834 448.722 C363.763 432.896 358.033 407.122 338.139 406.689 z" class="st1" style="fill:#505050;" /><path d="M71.773 679.252 C71.768 679.25 71.769 679.254 71.766 679.258 C64.896 688.922 68.044 702.414 78.482 708.042 C101.837 720.633 141.4 739.671 169.047 740.865 L221.454 741.106 C245.631 732.874 248.214 711.307 248.214 694.184 C248.214 664.795 231.236 613.211 197.968 623.574 C190.026 647.97 183.382 673.115 177.734 698.865 C177.734 698.865 171.017 704.213 151.017 704.213 C121.131 704.214 72.152 679.444 71.773 679.252 z" class="st1" style="fill:#505050;" /><path d="M458.733 387.527 C458.744 387.524 458.745 387.516 458.736 387.51 C440.327 373.692 428.413 351.69 428.413 326.9 C428.413 315.276 431.039 304.268 435.718 294.424 C405.81 284.113 383.504 258.84 378.6 226.8 C365.766 237.884 358.6 253.288 358.6 271.473 L357.133 358.601 L357.035 388.944 L338.139 406.791 C345.628 419.529 349.966 434.343 350.035 450.172 C350.242 497.579 311.618 536.691 264.211 537.053 C256.516 537.112 249.052 536.165 241.94 534.337 C240.758 561.79 226.779 585.91 205.82 600.916 C203.069 608.395 200.451 615.952 197.966 623.586 C220.367 639.218 235.036 665.166 235.036 694.555 C235.036 711.677 230.041 727.623 221.457 741.055 L261.389 741.055 C261.389 741.055 261.452 741.103 261.476 741.123 C267.672 746.011 275.48 748.953 283.986 748.953 L355.036 748.953 C355.036 748.41 355.028 747.87 355.013 747.331 C354.206 719.462 332.007 698.748 306.303 696.674 C306.267 696.671 306.267 696.663 306.302 696.656 C336.915 690.647 360.206 664.252 361.467 632.187 C366.165 636.42 369.297 642.116 369.866 649.13 L375.44 717.903 C377.998 735.462 393.097 748.953 411.365 748.953 L482.415 748.953 C482.415 748.411 482.407 747.87 482.392 747.331 C481.463 715.271 452.23 692.667 421.913 697.034 L416.933 698.987 L416.935 613.796 C415.886 613.957 414.81 614.056 413.707 614.056 C403.584 614.056 395.378 606.968 395.378 598.225 C395.379 589.482 403.586 582.394 413.71 582.394 C414.875 582.394 416.01 582.497 417.115 582.677 C417.12 582.678 417.125 582.675 417.126 582.669 L440.398 480.06 C427.454 470.602 419.038 455.315 419.038 438.055 C419.038 413.955 435.436 393.693 457.681 387.797 L458.733 387.527 z" class="st2" style="fill:#D2D2D2;" /><g><path d="M406.694 421.953 C413.133 421.953 418.354 415.909 418.354 408.453 C418.354 400.997 413.134 394.953 406.694 394.953 C400.255 394.953 395.035 400.997 395.035 408.453 C395.035 415.909 400.255 421.953 406.694 421.953 z" class="st1" style="fill:#505050;" /><path d="M362.848 469.724 C359.473 473.068 359.056 478.12 361.916 481.008 C364.776 483.896 369.83 483.527 373.204 480.183 C376.579 476.84 376.996 471.787 374.136 468.899 C371.276 466.011 366.223 466.38 362.848 469.724 z" class="st1" style="fill:#505050;" /><path d="M405.467 475.585 C408.675 473.089 408.91 468.027 405.991 464.279 C403.073 460.53 398.106 459.515 394.898 462.011 C391.69 464.507 391.456 469.568 394.374 473.317 C397.293 477.066 402.259 478.081 405.467 475.585 z" class="st1" style="fill:#505050;" /><path d="M403.877 498.793 C399.323 503.346 399.905 511.312 405.177 516.584 C410.448 521.856 418.413 522.439 422.967 517.886 C427.521 513.332 426.939 505.367 421.667 500.095 C416.395 494.823 408.431 494.24 403.877 498.793 z" class="st1" style="fill:#505050;" /></g><g><circle cx="507.48" cy="302.868" r="3.933" class="st3" style="fill:#2F2F2F;" /><circle cx="513.346" cy="290.114" r="3.933" class="st3" style="fill:#2F2F2F;" /><circle cx="523.346" cy="302.868" r="3.933" class="st3" style="fill:#2F2F2F;" /><path d="M554.562 288.675 C558.257 280.326 552.144 270.936 543.014 270.936 L528.992 270.936 C528.618 272.543 528.414 274.215 528.414 275.936 C528.414 287.829 537.852 297.511 549.646 297.917 C551.485 294.985 553.134 291.901 554.562 288.675 L554.562 288.675 z" class="st3" style="fill:#2F2F2F;" /><path d="M468.152 264.144 C466.896 257.811 461.103 253.249 454.494 253.718 C447.332 254.226 441.938 260.443 442.446 267.605 C442.902 274.042 447.976 279.036 454.197 279.615 C456.183 277.172 466.333 266.172 468.152 264.144 z" class="st4" style="fill:white;" /><path d="M468.381 265.766 C468.342 265.213 468.257 264.674 468.152 264.144 C466.243 262.798 463.877 262.075 461.365 262.253 C455.58 262.663 451.224 267.685 451.634 273.469 C451.802 275.835 452.75 277.954 454.198 279.614 C454.898 279.679 455.609 279.703 456.333 279.652 C463.494 279.145 468.888 272.928 468.381 265.766 z" class="st3" style="fill:#2F2F2F;" /><path d="M521.455 321.983 C514.676 322.616 507.797 322.743 500.993 322.495 C494.184 322.225 487.4 321.531 480.809 320.171 C477.521 319.474 474.271 318.648 471.139 317.563 C468.014 316.469 464.995 315.159 462.188 313.572 C456.569 310.405 452.017 305.859 449.636 300.356 L449.629 300.34 C448.847 298.533 446.75 297.703 444.943 298.484 C443.136 299.266 442.306 301.363 443.087 303.17 C443.118 303.242 443.156 303.32 443.191 303.389 C444.979 306.854 447.409 309.944 450.222 312.49 C453.04 315.032 456.188 317.108 459.491 318.684 C466.096 321.871 473.091 323.564 480.055 324.543 C487.032 325.513 494.026 325.764 500.975 325.587 C507.93 325.386 514.827 324.811 521.703 323.714 C522.18 323.638 522.504 323.19 522.429 322.713 C522.356 322.256 521.941 321.939 521.488 321.981 L521.455 321.983 z" class="st3" style="fill:#2F2F2F;" /></g><path d="M414.533 253.989 C414.533 239.053 413 224.327 410.419 211.426 C380.265 214.591 356.863 240.601 356.863 271.594 L356.863 359.037 C359.521 359.987 362.25 360.489 365.033 360.489 C392.371 360.489 414.533 312.807 414.533 253.989 z" class="st3" style="fill:#2F2F2F;" /><rect x="356.961" y="368.859" width="104.565" height="20.094" class="MsftOfcThm_Accent4_Fill_v2" style="fill:#FFC000;" /><path d="M291.975 698.132 C291.983 697.591 292.421 697.162 292.962 697.154 C329.936 696.639 360.445 666.83 360.489 629.744 C360.511 611.524 353.418 594.504 340.501 581.714 C340.113 581.33 340.1 580.71 340.478 580.316 L340.478 580.316 C340.865 579.913 341.514 579.902 341.911 580.295 C355.21 593.464 362.512 610.987 362.489 629.746 C362.443 667.921 331.047 698.607 292.99 699.153 C292.428 699.162 291.967 698.696 291.975 698.132 L291.975 698.132 z" class="st6" style="fill:#E6E6E6;" /><g><path d="M304.254 709.676 C303.688 709.652 303.215 710.116 303.215 710.682 C303.215 711.219 303.642 711.651 304.179 711.674 C324.104 712.531 340.075 728.878 340.325 748.953 L342.325 748.953 C342.074 727.802 325.247 710.573 304.254 709.676 z" class="st0" style="fill:#737373;" /><path d="M304.278 720.419 C303.703 720.377 303.215 720.847 303.215 721.423 C303.215 721.95 303.626 722.374 304.152 722.413 C317.99 723.445 328.96 734.913 329.204 748.952 L331.204 748.952 C330.959 733.853 319.16 721.517 304.278 720.419 z" class="st0" style="fill:#737373;" /></g><g><path d="M429.69 709.676 C429.124 709.652 428.651 710.116 428.651 710.682 C428.651 711.219 429.078 711.651 429.615 711.674 C449.54 712.531 465.511 728.878 465.761 748.953 L467.761 748.953 C467.511 727.802 450.683 710.573 429.69 709.676 z" class="st0" style="fill:#737373;" /><path d="M429.715 720.419 C429.14 720.377 428.652 720.847 428.652 721.423 C428.652 721.95 429.063 722.374 429.589 722.413 C443.427 723.445 454.396 734.913 454.641 748.952 L456.641 748.952 C456.395 733.853 444.597 721.517 429.715 720.419 z" class="st0" style="fill:#737373;" /></g></g><g><g><path d="M534.057 619.933 L533.575 619.929 L533.575 619.929 C533.575 619.929 533.575 619.929 533.575 619.929 C532.726 619.929 531.887 619.971 531.054 620.033 C514.427 621.262 501.159 634.531 499.929 651.158 C499.867 651.991 499.825 652.83 499.825 653.679 L499.825 653.679 L499.825 653.679 C499.825 653.679 499.826 653.915 499.827 654.057 C499.827 654.119 499.828 654.164 499.828 654.164 C500.085 672.418 514.835 687.166 533.088 687.425 C533.088 687.425 533.575 687.43 533.575 687.43 C534.424 687.43 535.263 687.388 536.097 687.326 C552.724 686.097 565.992 672.828 567.222 656.201 C567.284 655.368 567.326 654.529 567.326 653.68 C567.326 653.68 567.326 653.68 567.326 653.68 C567.325 635.201 552.473 620.192 534.057 619.933 z" class="MsftOfcThm_Accent4_Fill_v2" style="fill:#FFC000;" /><path d="M567.322 653.193 L566.975 653.207 C566.744 653.215 566.514 653.223 566.281 653.223 C548.498 653.223 534.031 638.755 534.031 620.973 C534.031 620.737 534.039 620.504 534.047 620.27 L534.057 619.932 L533.575 619.929 C532.726 619.929 531.887 619.971 531.054 620.033 L531.05 620.167 C531.04 620.435 531.032 620.703 531.032 620.973 C531.032 640.41 546.845 656.223 566.282 656.223 C566.55 656.223 566.816 656.214 567.081 656.205 L567.222 656.201 C567.284 655.368 567.326 654.529 567.326 653.68 L567.322 653.193 z" class="st4" style="fill:white;" /><path d="M536.119 686.385 C536.119 666.948 520.306 651.135 500.869 651.135 C500.601 651.135 499.929 651.158 499.929 651.158 C499.867 651.991 499.825 652.83 499.825 653.679 C499.825 653.679 499.828 654.163 499.828 654.163 C499.828 654.163 500.636 654.135 500.869 654.135 C518.652 654.135 533.119 668.603 533.119 686.385 C533.119 686.621 533.088 687.431 533.088 687.431 C533.088 687.431 533.575 687.429 533.575 687.429 C534.424 687.429 535.263 687.387 536.097 687.325 C536.096 687.325 536.119 686.655 536.119 686.385 z" class="st4" style="fill:white;" /></g><g><path d="M586.409 557.784 L586.413 557.302 L586.413 557.302 C586.413 557.302 586.413 557.302 586.413 557.302 C586.413 556.453 586.371 555.614 586.309 554.781 C585.08 538.154 571.812 524.886 555.185 523.657 C554.352 523.595 553.513 523.553 552.664 523.553 L552.664 523.553 L552.664 523.553 C552.664 523.553 552.428 523.554 552.286 523.555 C552.224 523.555 552.179 523.555 552.179 523.555 C533.926 523.812 519.178 538.562 518.919 556.814 C518.919 556.814 518.914 557.301 518.914 557.301 C518.914 558.15 518.956 558.989 519.018 559.822 C520.247 576.449 533.515 589.717 550.142 590.946 C550.975 591.008 551.814 591.05 552.663 591.05 C552.663 591.05 552.663 591.05 552.663 591.05 C571.142 591.051 586.15 576.2 586.409 557.784 z" class="st6" style="fill:#E6E6E6;" /><path d="M553.15 591.048 L553.136 590.701 C553.128 590.47 553.12 590.24 553.12 590.007 C553.12 572.225 567.587 557.758 585.369 557.758 C585.605 557.758 585.838 557.766 586.072 557.774 L586.41 557.784 L586.413 557.302 C586.413 556.453 586.371 555.614 586.309 554.781 L586.175 554.777 C585.907 554.767 585.639 554.759 585.369 554.759 C565.932 554.759 550.12 570.572 550.12 590.008 C550.12 590.276 550.129 590.542 550.138 590.807 L550.142 590.948 C550.975 591.01 551.814 591.052 552.663 591.052 L553.15 591.048 z" class="st4" style="fill:white;" /><path d="M519.959 559.846 C539.395 559.846 555.208 544.033 555.208 524.597 C555.208 524.329 555.185 523.657 555.185 523.657 C554.352 523.595 553.513 523.553 552.664 523.553 C552.664 523.553 552.18 523.556 552.18 523.556 C552.18 523.556 552.208 524.364 552.208 524.597 C552.208 542.379 537.741 556.846 519.959 556.846 C519.723 556.846 518.913 556.815 518.913 556.815 C518.913 556.815 518.915 557.302 518.915 557.302 C518.915 558.151 518.957 558.99 519.019 559.823 C519.019 559.824 519.689 559.846 519.959 559.846 z" class="st4" style="fill:white;" /></g><g><path d="M497.645 439.555 L497.163 439.551 L497.163 439.551 C497.163 439.551 497.163 439.551 497.163 439.551 C496.314 439.551 495.475 439.593 494.642 439.655 C478.015 440.884 464.747 454.153 463.517 470.78 C463.455 471.613 463.413 472.452 463.413 473.302 L463.413 473.302 L463.413 473.302 C463.413 473.302 463.414 473.538 463.415 473.68 C463.415 473.742 463.416 473.787 463.416 473.787 C463.673 492.041 478.423 506.789 496.676 507.048 C496.676 507.048 497.163 507.053 497.163 507.053 C498.012 507.053 498.851 507.011 499.685 506.949 C516.312 505.72 529.58 492.451 530.81 475.824 C530.872 474.991 530.914 474.152 530.914 473.303 C530.914 473.303 530.914 473.303 530.914 473.303 C530.913 454.823 516.061 439.814 497.645 439.555 z" class="st7" style="fill:#F2F2F2;" /><path d="M530.91 472.815 L530.563 472.829 C530.332 472.837 530.102 472.845 529.869 472.845 C512.086 472.845 497.619 458.377 497.619 440.595 C497.619 440.359 497.627 440.126 497.635 439.892 L497.645 439.554 L497.162 439.551 C496.313 439.551 495.474 439.593 494.641 439.655 L494.637 439.789 C494.627 440.057 494.619 440.325 494.619 440.595 C494.619 460.032 510.432 475.845 529.869 475.845 C530.137 475.845 530.403 475.836 530.668 475.827 L530.809 475.823 C530.871 474.99 530.913 474.151 530.913 473.302 L530.91 472.815 z" class="st4" style="fill:white;" /><path d="M499.707 506.007 C499.707 486.57 483.894 470.757 464.457 470.757 C464.189 470.757 463.517 470.78 463.517 470.78 C463.455 471.613 463.413 472.452 463.413 473.302 C463.413 473.302 463.416 473.786 463.416 473.786 C463.416 473.786 464.224 473.758 464.457 473.758 C482.24 473.758 496.707 488.226 496.707 506.008 C496.707 506.244 496.676 507.054 496.676 507.054 C496.676 507.054 497.163 507.052 497.163 507.052 C498.012 507.052 498.851 507.01 499.685 506.948 C499.685 506.948 499.707 506.277 499.707 506.007 z" class="st4" style="fill:white;" /></g></g><g><g><path d="M647.144 589.594 L646.641 648.548 C640.986 645.987 634.714 644.548 628.103 644.548 C603.253 644.548 583.109 664.693 583.109 689.542 L634.453 689.542 C676.024 689.542 688.714 651.516 688.714 651.516 L688.714 598.217 L647.144 589.594 z" class="MsftOfcThm_Accent4_Fill_v2" style="fill:#FFC000;" /><path d="M596.51 689.543 C596.706 672.122 610.931 658.009 628.397 658.009 C628.895 658.009 629.3 657.605 629.3 657.106 C629.3 656.607 628.896 656.204 628.397 656.204 C609.935 656.204 594.901 671.127 594.705 689.543 L596.51 689.543 z" class="st4" style="fill:white;" /></g><path d="M890.604 636.488 C889.992 634.717 889.166 633.007 888.109 631.39 C879.927 618.876 861.289 616.581 846.479 626.266 C846.313 626.374 846.155 626.489 845.991 626.6 C843.127 603.35 836.387 569.665 814.312 535.436 C792.178 501.117 751.679 487.696 726.769 462.333 C704.225 439.379 692.474 377.497 692.474 377.497 C692.474 377.497 715.939 289.954 678.163 270.789 C668.389 265.831 653.11 336.989 652.893 338.028 C652.773 338.093 650.019 339.588 648.793 341.558 C648.355 342.262 647.853 343.071 647.293 343.969 C644.972 308.146 639.486 276.272 633.085 276.272 C626.028 276.272 621.675 339.22 620.441 359.776 C620.335 361.535 620.151 370.407 619.978 379.813 C612.44 387.256 604.093 393.303 595.598 395.291 C604.19 404.616 605.472 419.641 605.472 433.32 C605.472 434.541 607.115 436.9 608.962 436.78 C651.537 437.549 682.095 470.073 682.095 512.831 C682.095 535.927 671.92 553.824 656.013 568.155 C657.302 572.606 657.638 579.804 657.638 584.671 C657.638 595.05 652.584 601.819 653.577 611.203 C676.596 631.499 709.791 650.257 743.961 651.73 C744.494 651.753 745.452 651.818 745.452 651.818 C734.419 660.013 728.135 672.832 727.694 688.079 C727.68 688.565 727.673 689.053 727.673 689.543 L791.796 689.543 C802.201 689.543 811.465 684.691 817.468 677.13 C817.468 677.13 851.479 677.173 852.639 677.322 C852.639 677.322 852.64 677.322 852.64 677.321 C853.361 677.058 853.828 676.877 854.685 676.456 C864.091 673.237 873.047 667.327 878.992 658.677 C882.061 654.213 884.287 650.976 890.04 638.421 C890.346 638.042 890.775 636.983 890.604 636.488 z" class="MsftOfcThm_Accent4_Fill_v2" style="fill:#FFC000;" /><path d="M686.157 511.076 C686.157 468.318 651.879 433.571 609.305 432.802 C609.31 432.73 609.296 432.562 609.264 432.306 C606.577 410.938 614.64 389.807 630.47 375.205 C641.16 365.345 649.071 352.519 652.896 338.029 C652.228 338.003 643.954 337.974 643.954 337.974 C627.712 337.974 613.215 348.163 607.714 363.445 L607.714 363.445 C604.048 373.627 596.824 381.794 587.744 386.748 C581.534 390.136 574.455 392.022 567.053 392.022 L553.983 392.022 L550.48 392.022 C548.075 393.16 541.697 396.168 538.99 398.755 C536.043 401.571 532.733 408.021 531.84 416.372 C537.72 425.736 545.809 433.349 555.239 438.653 C554.831 439.182 554.612 439.736 554.612 440.306 C554.612 442.715 558.473 444.828 564.284 446.028 C567.492 446.69 571.292 447.075 575.37 447.075 L587.381 447.075 C593.773 447.075 599.365 449.421 603.551 453.297 C608.545 457.92 611.536 464.722 611.47 472.345 L611.47 505.261 C611.47 514.62 612.419 523.866 614.023 533.014 C616.308 546.046 619.935 558.876 624.14 571.529 C625.65 576.075 628.052 580.896 631.219 585.825 C636.654 594.283 644.352 603.058 653.711 611.311 C659.097 603.3 662.242 593.655 662.242 583.276 C662.242 578.41 661.537 573.71 660.248 569.259 C676.154 554.929 686.157 534.171 686.157 511.076 z" class="st6" style="fill:#E6E6E6;" /><path d="M662.81 356.53 C662.809 356.535 662.807 356.532 662.812 356.533 C663.011 356.579 676.171 359.542 683.097 339.174 C688.565 323.093 684.137 297.965 675.454 293.623 C673.062 292.428 662.882 356.082 662.81 356.53 z" class="st4" style="fill:white;" /><g><circle cx="569.892" cy="420.842" r="3.55" class="st0" style="fill:#737373;" /><circle cx="565.501" cy="405.62" r="3.55" class="st1" style="fill:#505050;" /><circle cx="555.573" cy="420.842" r="3.55" class="st0" style="fill:#737373;" /><path d="M527.401 408.032 C524.066 400.497 529.583 392.022 537.823 392.022 L550.478 392.022 C550.816 393.472 551 394.982 551 396.535 C551 407.268 542.482 416.007 531.838 416.373 C530.177 413.727 528.69 410.944 527.401 408.032 L527.401 408.032 z" class="st3" style="fill:#2F2F2F;" /><path d="M556.418 438.344 C570.318 440.879 584.473 433.862 592.534 422.603 C595.133 418.818 600.758 423.484 597.473 426.719 C594.178 430.159 590.352 433.395 586.246 435.815 C577.176 441.022 566.076 442.842 555.973 439.858 C555.013 439.571 555.44 438.063 556.418 438.344 z" class="st0" style="fill:#737373;" /><g><path d="M623.867 398.827 C629.507 397.024 632.97 391.076 631.763 385.279 C630.396 378.711 623.86 374.661 617.417 376.278 C616.823 376.427 616.259 376.632 615.711 376.863 C614.467 378.415 611.734 381.799 610.982 384.547 C610.257 387.194 610.522 392.996 610.682 394.398 C613.531 398.45 618.785 400.452 623.867 398.827 z" class="st4" style="fill:white;" /><path d="M619.941 382.624 C619.314 380.125 617.746 378.114 615.712 376.863 C610.468 379.073 607.467 384.824 608.895 390.514 C609.256 391.952 609.878 393.253 610.682 394.397 C611.466 394.402 612.261 394.321 613.057 394.122 C618.133 392.848 621.215 387.7 619.941 382.624 z" class="st3" style="fill:#2F2F2F;" /></g></g><g><path d="M688.657 603.861 L688.157 648.534 C688.157 648.54 688.15 648.545 688.145 648.542 C682.493 645.983 676.011 644.091 669.405 644.091 C643.526 644.091 624.065 664.693 624.065 689.542 L675.969 689.542 C717.54 689.542 721.033 651.516 721.033 651.516 L721.15 629.977 L688.805 603.792 C688.746 603.745 688.658 603.786 688.657 603.861 z" class="MsftOfcThm_Accent4_Fill_v2" style="fill:#FFC000;" /><path d="M624.798 689.543 C625.044 665.428 644.718 645.003 668.878 645.003 C675.191 645.003 681.302 646.322 687.044 648.922 C687.322 649.048 687.644 649.024 687.901 648.861 C688.158 648.697 688.315 648.414 688.319 648.109 L688.822 603.236 C688.828 602.738 688.428 602.329 687.93 602.324 C687.927 602.324 687.923 602.324 687.92 602.324 C687.426 602.324 687.023 602.721 687.018 603.217 L686.531 646.716 C686.531 646.723 686.525 646.727 686.519 646.724 C680.915 644.383 674.988 643.198 668.88 643.198 C643.725 643.198 623.24 664.434 622.995 689.543 L624.798 689.543 z" class="st4" style="fill:white;" /><path d="M640.712 689.543 C640.908 672.122 655.133 658.009 672.6 658.009 C673.098 658.009 673.502 657.605 673.502 657.106 C673.502 656.607 673.098 656.204 672.6 656.204 C654.138 656.204 639.103 671.127 638.907 689.543 L640.712 689.543 z" class="st4" style="fill:white;" /><path d="M658.37 689.543 C658.565 681.855 664.866 675.658 672.6 675.658 C673.098 675.658 673.502 675.254 673.502 674.755 C673.502 674.256 673.098 673.853 672.6 673.853 C663.871 673.853 656.761 680.86 656.565 689.543 L658.37 689.543 z" class="st4" style="fill:white;" /></g><g><path d="M867.177 642.212 C874.638 637.333 883.03 635.516 890.608 636.492 C894.574 648.218 889.127 663.41 876.766 671.493 C869.305 676.372 862.687 678.533 852.606 677.319 C849.424 665.675 854.816 650.295 867.177 642.212 z" class="st6" style="fill:#E6E6E6;" /></g><g><rect x="618.868" y="525.787" width="6.27" height="0.902" transform="matrix(0.7891, -0.6143, 0.6143, 0.7891, -192.07, 493.072)" class="st4" style="fill:white;" /><rect x="649.068" y="533.54" width="5.19" height="0.903" transform="matrix(0.5623, -0.8269, 0.8269, 0.5623, -156.353, 772.574)" class="st4" style="fill:white;" /><rect x="631.727" y="527.737" width="9.492" height="0.903" transform="matrix(0.2109, -0.9775, 0.9775, 0.2109, -14.082, 1038.93)" class="st2" style="fill:#D2D2D2;" /><rect x="623.597" y="533.387" width="0.902" height="6.271" transform="matrix(0.812, -0.5837, 0.5837, 0.812, -195.828, 465.148)" class="st2" style="fill:#D2D2D2;" /><rect x="671.439" y="527.261" width="6.6" height="0.902" transform="matrix(0.0391, -0.9992, 0.9992, 0.0391, 121.067, 1181.32)" class="st4" style="fill:white;" /><rect x="633.925" y="472.851" width="0.903" height="8.885" transform="matrix(0.9285, -0.3714, 0.3714, 0.9285, -131.89, 269.739)" class="st2" style="fill:#D2D2D2;" /><rect x="627.493" y="512.863" width="8.817" height="0.903" transform="matrix(0.0625, -0.998, 0.998, 0.0625, 80.0968, 1111.9)" class="st4" style="fill:white;" /><rect x="629.852" y="496.366" width="7.399" height="0.902" transform="matrix(0.6685, -0.7437, 0.7437, 0.6685, -159.462, 635.898)" class="st4" style="fill:white;" /><rect x="658.673" y="512.983" width="0.903" height="9.462" transform="matrix(0.8137, -0.5812, 0.5812, 0.8137, -178.143, 479.541)" class="st2" style="fill:#D2D2D2;" /><rect x="675.446" y="505.832" width="0.902" height="7.816" transform="matrix(0.6333, -0.7739, 0.7739, 0.6333, -146.63, 710.039)" class="st4" style="fill:white;" /><rect x="673.422" y="496.915" width="6.6" height="0.903" class="st4" style="fill:white;" /><rect x="666.372" y="470.087" width="0.902" height="6.713" transform="matrix(0.5734, -0.8193, 0.8193, 0.5734, -103.42, 748.266)" class="st4" style="fill:white;" /><rect x="648.115" y="479.042" width="7.17" height="0.903" transform="matrix(0.8436, -0.537, 0.537, 0.8436, -155.551, 424.966)" class="st4" style="fill:white;" /><rect x="648.224" y="499.524" width="0.902" height="7.233" transform="matrix(0.9884, -0.1521, 0.1521, 0.9884, -68.9706, 104.5)" class="st4" style="fill:white;" /><rect x="652.437" y="493.89" width="7.874" height="0.903" transform="matrix(0.9777, -0.2098, 0.2098, 0.9777, -89.1033, 148.706)" class="st2" style="fill:#D2D2D2;" /><rect x="657.36" y="502.752" width="6.368" height="0.902" transform="matrix(0.2441, -0.9697, 0.9697, 0.2441, 11.3003, 1020.9)" class="st4" style="fill:white;" /><rect x="622.102" y="486.286" width="0.902" height="8.412" transform="matrix(0.1961, -0.9806, 0.9806, 0.1961, 19.488, 1004.76)" class="st4" style="fill:white;" /><rect x="626.92" y="345.429" width="0.903" height="8.884" transform="matrix(0.9285, -0.3714, 0.3714, 0.9285, -85.0646, 258.004)" class="st2" style="fill:#D2D2D2;" /><rect x="622.306" y="368.281" width="7.398" height="0.902" transform="matrix(0.669, -0.7432, 0.7432, 0.669, -66.8624, 587.319)" class="st4" style="fill:white;" /><rect x="640.748" y="350.356" width="7.171" height="0.903" transform="matrix(0.8436, -0.537, 0.537, 0.8436, -87.598, 400.881)" class="st4" style="fill:white;" /><rect x="625.983" y="356.233" width="0.902" height="8.412" transform="matrix(0.1961, -0.9806, 0.9806, 0.1961, 150.135, 904.016)" class="st4" style="fill:white;" /><rect x="646.938" y="585.878" width="6.957" height="0.902" transform="matrix(0.3518, -0.9361, 0.9361, 0.3518, -127.233, 988.925)" class="st4" style="fill:white;" /><rect x="637.409" y="582.61" width="0.903" height="7.338" transform="matrix(0.9822, -0.1879, 0.1879, 0.9822, -98.8099, 130.312)" class="st4" style="fill:white;" /><rect x="648.741" y="563.447" width="0.902" height="9.493" transform="matrix(0.1738, -0.9848, 0.9848, 0.1738, -23.1802, 1108.76)" class="st4" style="fill:white;" /><rect x="633.761" y="564.993" width="6.27" height="0.902" transform="matrix(0.7891, -0.6143, 0.6143, 0.7891, -213.012, 510.49)" class="st2" style="fill:#D2D2D2;" /><rect x="646.938" y="585.878" width="6.957" height="0.902" transform="matrix(0.3518, -0.9361, 0.9361, 0.3518, -127.233, 988.925)" class="st4" style="fill:white;" /><rect x="637.409" y="582.61" width="0.903" height="7.338" transform="matrix(0.9822, -0.1879, 0.1879, 0.9822, -98.8099, 130.312)" class="st2" style="fill:#D2D2D2;" /><rect x="631.672" y="544.92" width="5.499" height="0.903" transform="matrix(0.8005, -0.5994, 0.5994, 0.8005, -200.295, 489.075)" class="st4" style="fill:white;" /><rect x="647.543" y="548.625" width="0.902" height="7.48" transform="matrix(0.8304, -0.5572, 0.5572, 0.8304, -197.863, 454.741)" class="st4" style="fill:white;" /><rect x="645.704" y="453.313" width="0.903" height="7.338" transform="matrix(0.9822, -0.1879, 0.1879, 0.9822, -74.3609, 129.559)" class="st4" style="fill:white;" /><rect x="610.203" y="458.716" width="6.598" height="0.902" transform="matrix(0.0381, -0.9993, 0.9993, 0.0381, 131.297, 1054.73)" class="st4" style="fill:white;" /><rect x="628.241" y="459.108" width="7.931" height="0.902" transform="matrix(0.5547, -0.8321, 0.8321, 0.5547, -100.855, 730.669)" class="st4" style="fill:white;" /><rect x="645.704" y="453.313" width="0.903" height="7.338" transform="matrix(0.9822, -0.1879, 0.1879, 0.9822, -74.3609, 129.559)" class="st2" style="fill:#D2D2D2;" /><rect x="610.203" y="458.716" width="6.598" height="0.902" transform="matrix(0.0381, -0.9993, 0.9993, 0.0381, 131.297, 1054.73)" class="st2" style="fill:#D2D2D2;" /><rect x="618.967" y="471.068" width="7.171" height="0.902" transform="matrix(0.5686, -0.8226, 0.8226, 0.5686, -119.309, 715.534)" class="st4" style="fill:white;" /><rect x="583.567" y="393.13" width="0.903" height="8.885" transform="matrix(0.9285, -0.3714, 0.3714, 0.9285, -105.886, 245.347)" class="st2" style="fill:#D2D2D2;" /><rect x="592.013" y="405.169" width="7.17" height="0.903" transform="matrix(0.8436, -0.537, 0.537, 0.8436, -124.656, 383.284)" class="st4" style="fill:white;" /><rect x="589.055" y="389.147" width="7.171" height="0.902" transform="matrix(0.5686, -0.8226, 0.8226, 0.5686, -64.8239, 655.587)" class="st4" style="fill:white;" /><rect x="610.611" y="441.043" width="0.902" height="6.712" transform="matrix(0.0416, -0.9991, 0.9991, 0.0416, 141.614, 1036.43)" class="st4" style="fill:white;" /><rect x="629.891" y="440.812" width="0.903" height="7.17" transform="matrix(0.5369, -0.8436, 0.8436, 0.5369, -83.0034, 737.583)" class="st4" style="fill:white;" /><rect x="628.241" y="459.108" width="7.931" height="0.902" transform="matrix(0.5547, -0.8321, 0.8321, 0.5547, -100.855, 730.669)" class="st2" style="fill:#D2D2D2;" /><rect x="619.661" y="510.535" width="0.902" height="9.493" transform="matrix(0.1738, -0.9848, 0.9848, 0.1738, 4.9004, 1036.4)" class="st4" style="fill:white;" /><rect x="649.068" y="533.54" width="5.19" height="0.903" transform="matrix(0.5623, -0.8269, 0.8269, 0.5623, -156.353, 772.574)" class="st4" style="fill:white;" /><rect x="623.597" y="533.387" width="0.902" height="6.271" transform="matrix(0.812, -0.5837, 0.5837, 0.812, -195.828, 465.148)" class="st2" style="fill:#D2D2D2;" /></g><g><rect x="876.626" y="656.748" width="0.902" height="9.493" transform="matrix(0.1738, -0.9848, 0.9848, 0.1738, 73.2126, 1410.25)" class="st4" style="fill:white;" /><rect x="861.646" y="658.294" width="6.271" height="0.902" transform="matrix(0.7896, -0.6137, 0.6137, 0.7896, -222.27, 669.315)" class="st2" style="fill:#D2D2D2;" /><rect x="875.427" y="641.926" width="0.902" height="7.48" transform="matrix(0.8304, -0.5572, 0.5572, 0.8304, -211.199, 597.593)" class="st4" style="fill:white;" /></g><g><path d="M744.714 689.543 C744.91 672.122 759.135 658.009 776.602 658.009 C777.101 658.009 777.505 657.605 777.505 657.106 C777.505 656.607 777.101 656.204 776.602 656.204 C758.14 656.204 743.105 671.127 742.909 689.543 L744.714 689.543 z" class="st4" style="fill:white;" /><path d="M727.823 689.543 C728.02 662.809 749.821 641.118 776.601 641.118 C777.1 641.118 777.504 640.714 777.504 640.216 C777.504 639.718 777.1 639.313 776.601 639.313 C748.826 639.313 726.215 661.813 726.018 689.543 L727.823 689.543 z" class="st4" style="fill:white;" /><path d="M762.372 689.543 C762.567 681.855 768.868 675.658 776.602 675.658 C777.101 675.658 777.505 675.254 777.505 674.755 C777.505 674.256 777.101 673.853 776.602 673.853 C767.873 673.853 760.763 680.86 760.567 689.543 L762.372 689.543 z" class="st4" style="fill:white;" /><path d="M776.601 641.118 C745.119 641.118 719.506 615.506 719.506 584.024 L719.506 577.44 C719.506 576.941 719.91 576.537 720.408 576.537 C720.906 576.537 721.311 576.941 721.311 577.44 L721.311 584.024 C721.311 614.511 746.114 639.313 776.601 639.313 C777.1 639.313 777.504 639.717 777.504 640.216 C777.504 640.715 777.1 641.118 776.601 641.118 z" class="st4" style="fill:white;" /></g><path d="M683.078 632.879 C682.974 632.879 682.87 632.861 682.767 632.823 C663.973 625.926 653.101 612.001 652.994 611.861 C652.69 611.466 652.764 610.9 653.159 610.596 C653.553 610.293 654.119 610.364 654.425 610.76 C654.529 610.896 665.105 624.418 683.39 631.129 C683.858 631.301 684.098 631.819 683.926 632.287 C683.791 632.653 683.446 632.879 683.078 632.879 z" class="st4" style="fill:white;" /></g></svg>