<svg overflow="hidden" viewBox="0, 0, 96, 96" xml:space="preserve" id="Icons_121712027513" xmlns="http://www.w3.org/2000/svg" xmlns:xlink="http://www.w3.org/1999/xlink" xmlns:xml="http://www.w3.org/XML/1998/namespace" version="1.1">
  <g>
    <path d="M61.82 55.44 C66.68 46.7 70.65 37.92 70.65 32.58 C70.65 20.08 60.49 9.92 48 9.92 C35.51 9.92 25.35 20.08 25.35 32.57 C25.35 37.91 29.33 46.7 34.18 55.43 C23.83 58.12 17.26 63.67 17.26 69.87 C17.26 78.91 30.76 86 48 86 C65.24 86 78.74 78.91 78.74 69.87 C78.74 63.68 72.17 58.13 61.82 55.44 z M48 12.97 C58.81 12.97 67.61 21.77 67.61 32.58 C67.61 36.91 64.31 44.94 58.2 55.68 C58.19 55.69 58.19 55.7 58.18 55.71 C56.76 58.21 55.2 60.83 53.54 63.52 C52.98 64.43 52.41 65.34 51.81 66.28 C50.98 67.59 49.55 68.38 48 68.38 C46.45 68.38 45.02 67.6 44.19 66.28 C43.6 65.35 43.02 64.43 42.46 63.52 C40.8 60.83 39.24 58.22 37.82 55.71 C37.81 55.7 37.81 55.69 37.8 55.68 C31.69 44.94 28.39 36.91 28.39 32.58 C28.39 21.76 37.19 12.97 48 12.97 z M48 82.97 C32.99 82.97 20.3 76.98 20.3 69.88 C20.3 65.04 26.46 60.41 35.73 58.18 C37.67 61.54 39.69 64.85 41.62 67.89 C43.01 70.09 45.4 71.4 48 71.4 C50.6 71.4 52.99 70.09 54.38 67.89 C56.31 64.85 58.33 61.55 60.27 58.18 C69.55 60.41 75.7 65.04 75.7 69.88 C75.7 76.98 63.01 82.97 48 82.97 z" />
    <path d="M48 31.52 C43.77 31.52 40.24 34.82 39.96 39.03 C39.96 39.03 39.96 39.03 39.96 39.03 C39.86 40.58 40.41 42.1 41.48 43.21 C42.46 44.23 43.76 44.78 45.14 44.78 C45.2 44.78 45.26 44.78 45.32 44.78 C46.23 44.75 47.12 44.48 47.89 44 C47.97 43.95 48.04 43.95 48.05 43.96 C48.89 44.5 49.86 44.78 50.86 44.78 C53.73 44.78 56.06 42.45 56.06 39.58 C56.06 35.14 52.44 31.52 48 31.52 z" />
    <path d="M40.88 29.64 C41.7 30.28 42.64 30.61 43.56 30.61 C43.89 30.61 44.22 30.57 44.53 30.48 C45.75 30.15 46.75 29.22 47.27 27.92 C47.74 26.75 47.8 25.37 47.44 24.04 C47.14 22.92 46.4 21.89 45.41 21.2 C44.32 20.44 43.02 20.19 41.85 20.5 C40.68 20.81 39.69 21.68 39.12 22.89 C38.6 23.98 38.48 25.25 38.78 26.37 C39.14 27.69 39.89 28.86 40.88 29.64 z" />
    <path d="M51.13 30.48 C51.46 30.57 51.8 30.61 52.13 30.61 C54.22 30.61 56.19 28.91 56.88 26.35 C57.18 25.23 57.06 23.96 56.54 22.87 C55.97 21.67 54.98 20.8 53.81 20.48 C52.64 20.17 51.35 20.42 50.25 21.18 C49.26 21.87 48.52 22.9 48.22 24.02 C47.86 25.35 47.92 26.73 48.39 27.9 C48.91 29.22 49.91 30.16 51.13 30.48 z" />
    <path d="M56.04 31.59 C56.18 32.79 56.81 33.79 57.76 34.34 C58.29 34.65 58.87 34.79 59.46 34.79 C60.94 34.79 62.48 33.86 63.41 32.25 C64.52 30.33 63.93 27.75 62.15 26.72 C60.37 25.69 57.84 26.48 56.73 28.39 C56.17 29.41 55.92 30.54 56.04 31.59 z" />
    <path d="M38.23 34.34 C39.18 33.79 39.81 32.79 39.95 31.59 C40.08 30.54 39.83 29.4 39.25 28.4 C38.14 26.48 35.61 25.7 33.83 26.73 C32.05 27.76 31.46 30.34 32.57 32.26 C33.5 33.87 35.04 34.8 36.52 34.8 C37.12 34.79 37.7 34.65 38.23 34.34 z" />
  </g>
</svg>